<svg width="95" height="103" viewBox="0 0 95 103" fill="none" xmlns="http://www.w3.org/2000/svg">
<g id="Layer 23">
<path id="Vector" d="M40 67.5H7.5C5.51088 67.5 3.60322 66.7098 2.1967 65.3033C0.790177 63.8968 0 61.9891 0 60V45C0 43.0109 0.790177 41.1032 2.1967 39.6967C3.60322 38.2902 5.51088 37.5 7.5 37.5H40C41.9891 37.5 43.8968 38.2902 45.3033 39.6967C46.7098 41.1032 47.5 43.0109 47.5 45V60C47.5 61.9891 46.7098 63.8968 45.3033 65.3033C43.8968 66.7098 41.9891 67.5 40 67.5ZM7.5 42.5C6.83696 42.5 6.20107 42.7634 5.73223 43.2322C5.26339 43.7011 5 44.337 5 45V60C5 60.663 5.26339 61.2989 5.73223 61.7678C6.20107 62.2366 6.83696 62.5 7.5 62.5H40C40.663 62.5 41.2989 62.2366 41.7678 61.7678C42.2366 61.2989 42.5 60.663 42.5 60V45C42.5 44.337 42.2366 43.7011 41.7678 43.2322C41.2989 42.7634 40.663 42.5 40 42.5H7.5Z" fill="white"/>
<path id="Vector_2" d="M50.0003 29.9999H25.0003C24.5068 29.9974 24.025 29.8489 23.6157 29.5731C23.2064 29.2972 22.8879 28.9064 22.7003 28.4499C22.5089 27.9946 22.4566 27.4928 22.55 27.0078C22.6435 26.5229 22.8785 26.0764 23.2253 25.7249L48.2253 0.72486C48.5769 0.377966 49.0233 0.142976 49.5083 0.0495406C49.9933 -0.0438947 50.4951 0.00841133 50.9503 0.19986C51.4069 0.38741 51.7977 0.705904 52.0735 1.1152C52.3494 1.52451 52.4979 2.0063 52.5003 2.49986V27.4999C52.5003 28.1629 52.237 28.7988 51.7681 29.2676C51.2993 29.7365 50.6634 29.9999 50.0003 29.9999ZM31.0253 24.9999H47.5003V8.52486L31.0253 24.9999Z" fill="white"/>
<path id="Vector_3" d="M13.1998 45.7253C13.7513 45.7121 14.2996 45.8118 14.8112 46.0182C15.3228 46.2245 15.7868 46.5332 16.1748 46.9253C16.5894 47.2919 16.9218 47.742 17.1501 48.2461C17.3785 48.7502 17.4976 49.2969 17.4998 49.8503C17.5058 50.3956 17.4002 50.9363 17.1895 51.4393C16.9789 51.9424 16.6676 52.397 16.2748 52.7753C15.8821 53.1593 15.4167 53.4611 14.9058 53.6629C14.395 53.8646 13.8489 53.9623 13.2998 53.9503H11.0498V57.9753H8.5498V45.7253H13.1998ZM13.1998 51.7003C13.44 51.7103 13.6793 51.666 13.9001 51.5708C14.1208 51.4756 14.3173 51.3318 14.4748 51.1503C14.6472 50.9815 14.7828 50.7789 14.8732 50.5551C14.9635 50.3314 15.0066 50.0914 14.9998 49.8503C15.0091 49.6013 14.9673 49.3531 14.877 49.1209C14.7867 48.8888 14.6498 48.6775 14.4748 48.5003C14.3127 48.326 14.1149 48.1888 13.8948 48.0982C13.6747 48.0076 13.4376 47.9656 13.1998 47.9753H11.0498V51.7003H13.1998Z" fill="white"/>
<path id="Vector_4" d="M23.8252 45.7252C24.6106 45.7099 25.3904 45.86 26.114 46.1659C26.8376 46.4717 27.4888 46.9263 28.0252 47.5002C29.1162 48.6861 29.7218 50.2387 29.7218 51.8502C29.7218 53.4616 29.1162 55.0142 28.0252 56.2002C27.4928 56.7792 26.8423 57.2372 26.1178 57.5434C25.3933 57.8496 24.6115 57.9969 23.8252 57.9752H18.9502V45.7252H23.8252ZM23.8252 55.7252C24.2939 55.7309 24.7586 55.6381 25.1893 55.453C25.6199 55.2678 26.0069 54.9943 26.3252 54.6502C26.9723 53.88 27.3271 52.9062 27.3271 51.9002C27.3271 50.8942 26.9723 49.9204 26.3252 49.1502C26.0019 48.8142 25.6134 48.5478 25.1835 48.3672C24.7536 48.1867 24.2914 48.0958 23.8252 48.1002H21.3252V55.7252H23.8252Z" fill="white"/>
<path id="Vector_5" d="M38.7496 48.0501H33.7496V50.9501H38.5246V53.2501H33.8496V57.9751H31.3496V45.7251H38.7496V48.0501Z" fill="white"/>
<path id="Vector_6" d="M87.5 97.5H71.075C70.412 97.5 69.7761 97.2366 69.3073 96.7678C68.8384 96.299 68.575 95.6631 68.575 95C68.575 94.337 68.8384 93.7011 69.3073 93.2323C69.7761 92.7634 70.412 92.5 71.075 92.5H87.5C88.1631 92.5 88.799 92.2366 89.2678 91.7678C89.7367 91.299 90 90.6631 90 90V7.50004C90 6.837 89.7367 6.20112 89.2678 5.73228C88.799 5.26343 88.1631 5.00004 87.5 5.00004H51.025L27.5 28.525V40C27.5 40.6631 27.2366 41.299 26.7678 41.7678C26.299 42.2367 25.6631 42.5 25 42.5C24.337 42.5 23.7011 42.2367 23.2323 41.7678C22.7634 41.299 22.5 40.6631 22.5 40V27.5C22.4981 27.171 22.5612 26.8449 22.6856 26.5403C22.81 26.2357 22.9933 25.9586 23.225 25.725L48.225 0.725042C48.4586 0.493338 48.7357 0.310025 49.0403 0.185614C49.3449 0.0612022 49.671 -0.00186045 50 4.17857e-05H87.5C89.4892 4.17857e-05 91.3968 0.790218 92.8033 2.19674C94.2099 3.60326 95 5.51092 95 7.50004V90C95 91.9892 94.2099 93.8968 92.8033 95.3033C91.3968 96.7099 89.4892 97.5 87.5 97.5Z" fill="white"/>
<path id="Vector_7" d="M63.925 97.5H30C28.0109 97.5 26.1032 96.7098 24.6967 95.3033C23.2902 93.8968 22.5 91.9891 22.5 90V65C22.5 64.337 22.7634 63.7011 23.2322 63.2322C23.7011 62.7634 24.337 62.5 25 62.5C25.663 62.5 26.2989 62.7634 26.7678 63.2322C27.2366 63.7011 27.5 64.337 27.5 65V90C27.5 90.663 27.7634 91.2989 28.2322 91.7678C28.7011 92.2366 29.337 92.5 30 92.5H63.925C64.588 92.5 65.2239 92.7634 65.6928 93.2322C66.1616 93.7011 66.425 94.337 66.425 95C66.425 95.663 66.1616 96.2989 65.6928 96.7678C65.2239 97.2366 64.588 97.5 63.925 97.5Z" fill="white"/>
<path id="Vector_8" d="M67.5002 102.5C67.1036 102.498 66.7131 102.402 66.361 102.219C66.0089 102.037 65.7052 101.773 65.4752 101.45L52.9752 83.95C52.7095 83.5769 52.5515 83.1379 52.5183 82.6811C52.4851 82.2242 52.5781 81.7671 52.787 81.3595C52.996 80.9519 53.3129 80.6095 53.7032 80.3698C54.0935 80.13 54.5422 80.0021 55.0002 80H57.5002V67.5C57.5002 66.837 57.7636 66.2011 58.2324 65.7322C58.7013 65.2634 59.3372 65 60.0002 65H75.0002C75.6632 65 76.2991 65.2634 76.768 65.7322C77.2368 66.2011 77.5002 66.837 77.5002 67.5V80H80.0002C80.4582 80.0021 80.9069 80.13 81.2972 80.3698C81.6875 80.6095 82.0044 80.9519 82.2134 81.3595C82.4223 81.7671 82.5153 82.2242 82.4821 82.6811C82.4489 83.1379 82.2909 83.5769 82.0252 83.95L69.5252 101.45C69.2952 101.773 68.9915 102.037 68.6394 102.219C68.2873 102.402 67.8968 102.498 67.5002 102.5ZM59.8502 85L67.5002 95.7L75.1502 85H75.0002C74.3372 85 73.7013 84.7366 73.2324 84.2678C72.7636 83.7989 72.5002 83.163 72.5002 82.5V70H62.5002V82.5C62.5002 83.163 62.2368 83.7989 61.768 84.2678C61.2991 84.7366 60.6632 85 60.0002 85H59.8502Z" fill="white"/>
</g>
</svg>
