<svg width="469" height="377" viewBox="0 0 469 377" fill="none" xmlns="http://www.w3.org/2000/svg">
<path opacity="0.6" d="M181.817 753.505C199.965 760.616 219.293 765.649 239.604 768.418C280.866 774.124 325.124 771.257 369.16 759.994C386.298 755.685 406.512 749.938 426.304 741.75C439.191 736.385 451.607 729.663 463.096 721.829C471.478 716.317 479.833 710.323 487.807 704.644C492.984 700.865 498.375 697.07 503.634 693.389C510.003 688.931 516.69 684.535 523.16 680.173C536.933 670.866 551.2 661.331 564.586 650.965C605.236 619.439 641.17 583.226 670.766 543.55C685.509 523.76 698.699 503.198 709.879 482.108C712.601 476.945 715.222 471.686 717.853 466.417C766.888 364.261 770.039 251.602 725.928 165.143C681.816 78.6826 590.416 17.7233 481.059 2.16744C456.33 -1.36031 438.737 2.30089 426.915 13.2301C413.439 25.7908 414.131 41.6884 414.776 57.1054C415.107 65.6044 415.53 74.1913 413.684 82.4601C408.528 105.369 384.76 124.375 364.254 134.407C346.826 143.001 328.141 148.13 310.108 153.199C304.015 154.965 297.83 156.642 291.617 158.512C228.292 177.525 167.603 212.01 117.035 255.806C78.8212 288.718 46.79 327.008 23.2301 368.295C3.78562 402.522 -3.30841 429.747 1.42362 451.974C8.3353 483.75 38.3199 502.029 67.4045 519.677C97.1941 537.772 127.884 556.499 132.066 589.566C134.126 605.168 129.573 622.282 125.208 638.879C120.843 655.477 116.151 672.895 118.34 689.075C122.472 723.244 155.227 742.988 181.817 753.505ZM121.387 687.847C119.448 672.14 123.87 655.141 128.336 638.639C132.731 621.831 137.3 604.535 135.336 588.329C131.075 554.256 99.8616 535.294 69.5617 516.935C40.8857 499.454 11.2909 481.543 4.59131 450.641C-0.0496634 429.194 6.99568 402.379 26.1233 368.963C80.1834 273.847 182.052 194.222 292.133 161.04C298.233 159.282 304.539 157.501 310.631 155.735C328.878 150.649 347.695 145.407 365.468 136.683C375.19 131.959 384.328 125.792 392.38 118.818C404.08 108.685 413.579 96.2576 416.801 82.229C418.798 73.6462 418.31 64.7615 418.018 56.0607C417.373 40.6437 416.696 26.1282 429.014 14.7545C439.82 4.69023 456.471 1.50784 479.916 4.73655C588.391 20.3517 679.297 80.8648 723.057 166.755C766.806 252.655 763.667 364.414 714.727 465.966C712.227 471.121 709.596 476.389 706.874 481.552C695.721 502.45 682.774 522.786 668.163 542.462C638.726 581.832 603.043 617.826 562.766 649.03C549.512 659.282 535.245 668.817 521.472 678.124C515.001 682.486 508.408 686.97 501.946 691.34C496.687 695.021 491.296 698.816 486.119 702.595C478.145 708.274 469.79 714.268 461.49 719.878C450.039 727.51 437.968 734.101 425.435 739.345C405.867 747.506 385.905 753.035 368.982 757.328C325.4 768.564 281.721 771.283 240.774 765.657C220.677 762.871 201.443 757.926 183.621 750.885C157.448 740.543 125.502 721.326 121.387 687.847ZM260.39 744.1C279.388 746.78 299.22 747.511 319.253 746.152C325.594 745.751 332.074 745.045 338.48 744.25C352.623 742.35 366.796 739.566 380.88 735.785C395.783 731.847 415.186 726.265 434.093 718.154C446.059 713.05 457.563 706.598 468.315 699.218C474.777 694.848 480.8 690.52 485.977 686.741L492.365 682.083C496.685 678.863 501.347 675.531 505.889 672.303C511.4 668.403 516.922 664.495 522.535 660.691C535.749 651.531 549.216 642.153 562.023 631.935C580.689 616.995 598.073 601.065 614.379 584.137C630.538 567.505 645.366 550.094 658.671 531.901C672.059 513.806 683.902 494.947 693.963 475.516C696.414 470.772 698.857 466.019 701.105 461.083C720.224 419.947 731.901 377.698 735.432 336.188C740.528 280.673 730.5 227.738 706.466 181.829C685.678 143.105 655.37 110.189 617.213 85.1115C579.186 59.938 534.081 43.3317 484.418 36.3007C462.162 33.2831 446.274 36.5106 435.498 46.3651C423.18 57.7387 423.681 71.8701 424.116 85.7212C424.366 93.2322 424.679 101.041 422.752 108.322C418.618 125.593 401.805 142.975 378.179 154.821C360.852 163.51 342.417 169.112 324.437 174.688C319.715 176.14 314.982 177.602 310.129 179.169C246.734 199.484 187.437 232.764 139.892 273.942C122.408 289.084 106.4 305.401 92.1011 322.875C79.2507 338.742 67.9148 355.582 58.4929 372.88C41.2988 404.453 35.3458 429.801 40.5477 450.409C47.636 478.506 74.6027 494.83 100.656 510.55C110.6 516.503 120.83 522.745 129.896 529.474C149.791 544.379 159.476 558.989 161.541 576.855C163.233 591.198 158.982 606.991 155.131 622.27C151.133 637.845 146.743 653.944 148.665 668.96C152.531 701.074 182.459 719.755 206.929 729.64C223.682 736.565 241.512 741.315 260.39 744.1ZM151.932 668.415C150.148 653.984 154.297 638.095 158.268 622.712C162.237 607.346 166.415 591.247 164.809 576.31C162.748 557.734 152.662 542.766 132.377 527.494C123.218 520.676 113.09 514.53 103.055 508.472C77.279 493.033 50.7403 476.876 43.8448 449.654C38.8822 429.727 44.5178 404.992 61.4029 374.04C70.7949 356.951 81.8898 340.32 94.7128 324.646C108.749 307.399 124.757 291.082 141.989 276.158C189.04 235.407 247.861 202.372 310.689 182.195C315.421 180.733 320.143 179.28 324.997 177.714C343.106 172.042 361.664 166.318 379.213 157.62C388.104 153.262 396.366 147.854 403.794 141.422C415.242 131.507 423.157 120.083 425.784 108.685C427.546 101.011 427.354 93.0975 427.142 85.3847C426.809 71.6295 426.341 58.68 437.501 48.4934C447.281 39.5023 462.117 36.6497 483.292 39.5602C580.192 52.9183 662.686 106.842 703.519 183.845C727.407 229.359 737.388 281.813 732.348 336.926C728.754 378.139 717.134 419.986 698.295 460.711C696.066 465.447 693.623 470.2 691.18 474.952C681.16 494.164 669.464 512.726 656.29 530.805C643.023 548.796 628.187 566.199 612.28 582.612C596.095 599.436 578.628 615.269 560.083 630.104C547.396 640.218 533.93 649.596 520.847 658.642C515.456 662.437 509.711 666.355 504.2 670.254C499.659 673.482 495.098 676.91 490.556 680.139L484.158 684.806C478.992 688.575 472.968 692.903 466.626 697.169C455.995 704.444 444.875 710.565 433.133 715.643C414.58 723.632 395.278 729.11 380.627 733.029C366.656 736.697 352.705 739.473 338.775 741.357C332.482 742.239 326.114 742.832 319.773 743.233C299.88 744.486 280.363 743.835 261.486 741.05C242.926 738.327 225.197 733.673 208.752 727.019C184.765 717.59 155.504 699.558 151.932 668.415ZM281.175 719.781C298.638 722.381 316.954 723.03 335.545 721.678C341.428 721.321 347.48 720.648 353.327 719.8C366.465 718.081 379.642 715.27 392.72 711.67C412.896 706.125 428.092 700.876 441.986 694.637C452.936 689.723 463.62 683.628 473.514 676.806C479.631 672.567 485.301 668.361 489.843 665.133L497.118 659.706C500.709 656.949 504.525 654.166 508.209 651.496C512.657 648.18 517.199 644.952 521.732 641.716C534.275 632.616 547.294 623.272 559.403 613.306C576.307 599.202 592.349 584.067 607.193 568.237C621.576 553.143 634.783 537.136 646.854 520.533C658.812 504.043 669.312 486.87 678.344 469.205C680.795 464.46 682.827 460.232 684.736 456.125C701.865 418.108 712.203 379.135 715.361 340.921C719.961 289.715 710.081 241.023 686.871 199.321C667.766 165.119 640.387 136.335 606.448 114.106C572.508 91.8777 532.294 77.3679 487.988 71.3082C468.412 68.7762 454.368 71.4642 444.815 79.7376L444.18 80.2879C433.151 90.3606 433.218 102.952 433.344 115.124C433.381 121.76 433.389 128.607 431.798 135.075C427.997 150.142 412.997 165.587 391.867 176.16C373.682 185.408 355.385 191.596 336.276 198.149L328.639 200.716C280.323 217.279 217.111 245.517 164.286 291.267C149.814 303.801 136.514 317.42 124.663 331.732C112.615 346.551 102.212 362.23 93.8281 378.445C78.9117 407.171 74.2482 431.218 79.8263 449.922C87.1215 474.329 111.087 488.514 134.317 502.463C144.157 508.337 154.425 514.377 163.258 521.125C180.711 534.618 189.625 548.5 191.218 565.029C192.634 578.199 188.815 592.576 185.267 606.535C181.439 620.904 177.656 635.771 179.18 649.737C182.608 679.595 209.877 696.898 232.096 706.264C247.277 712.618 263.693 717.183 281.175 719.781ZM182.395 648.885C180.784 635.531 184.762 620.847 188.329 606.689C192.129 592.512 195.882 577.854 194.523 564.282C192.793 547.167 183.648 532.611 165.676 518.847C156.75 512.011 146.482 505.971 136.549 500.009C112.583 485.823 90.0582 472.322 82.9667 448.781C77.628 430.759 82.1962 407.316 96.683 379.315C104.908 363.406 115.19 347.832 126.976 333.24C184.001 263.659 268.409 224.255 329.124 203.454L336.641 200.991C355.284 194.673 374.401 188.128 392.931 178.749C400.871 174.862 408.313 169.812 415.076 164.139C425.264 155.315 432.207 145.254 434.74 135.333C436.479 128.568 436.498 121.529 436.266 114.709C436.142 102.52 436.006 91.2304 446 82.2229C454.733 74.3064 467.985 71.783 486.695 74.1915C573.625 85.6362 645.314 131.884 683.879 201.038C706.921 242.364 716.626 290.672 712.121 341.274C708.982 379.288 698.712 417.849 681.742 455.56C679.953 459.562 677.913 463.783 675.47 468.535C666.468 485.991 656.089 503.06 644.259 519.453C632.44 535.838 619.263 551.635 604.869 566.738C590.157 582.455 574.246 597.476 557.463 611.476C545.354 621.441 532.559 630.759 519.912 639.781C515.379 643.017 510.931 646.333 506.389 649.561C502.705 652.231 498.993 655.092 495.309 657.762L488.146 663.076C483.838 666.286 478.036 670.606 471.947 674.653C462.184 681.361 451.844 687.326 441.016 692.135C427.373 698.156 412.411 703.387 392.459 708.907C379.502 712.402 366.538 715.197 353.633 716.898C347.776 717.755 341.855 718.314 335.972 718.671C317.603 720.014 299.523 719.33 282.375 716.81C265.219 714.282 248.979 709.902 233.919 703.643C212.071 694.646 185.638 677.676 182.395 648.885ZM301.859 695.367C317.926 697.779 334.576 698.462 351.613 697.229C357.048 696.906 362.654 696.268 368.054 695.455C380.196 693.709 392.368 691.078 404.432 687.652C419.782 683.48 434.903 677.943 449.628 671.338C459.777 666.581 469.631 660.852 478.714 654.395C483.125 651.281 487.798 647.939 493.618 643.419L501.901 637.12C504.736 635.017 507.478 632.826 510.313 630.724L520.453 622.984C532.549 613.919 545.019 604.513 556.719 594.38L556.851 594.266C571.974 581 586.449 566.884 599.8 552.163C612.458 538.394 624.216 523.995 634.861 508.98C645.494 493.975 654.649 478.488 662.529 462.709C664.728 458.183 666.583 454.461 668.081 450.879C682.674 417.526 691.848 382.014 695.123 345.279C699.218 298.374 689.726 253.914 667.371 216.21C631.595 155.356 567.419 115.067 491.43 105.738C473.89 103.542 461.373 106.303 452.828 113.703C442.862 122.518 442.842 133.422 442.626 144.141C442.583 149.79 442.39 155.753 440.913 161.417C437.293 174.396 424.141 187.718 405.705 197.185C385.72 207.471 365.801 215.063 347.063 221.985C300.766 239.084 238.258 265.47 188.698 308.393C177.25 318.307 166.675 329.046 157.112 340.501C145.775 354.168 136.326 368.684 128.968 383.826C116.182 410.002 112.797 432.084 118.929 449.249C126.3 470.08 147.45 482.303 167.772 494.201C177.651 499.874 187.817 505.818 196.304 512.696C211.73 524.971 219.569 537.838 220.774 553.307C221.821 565.217 218.387 578.372 215.048 590.922C211.614 604.077 208.104 617.833 209.353 630.628C212.238 658.149 236.904 674.365 256.918 683.019C271.098 688.646 286.005 692.937 301.859 695.367ZM212.707 629.471C211.402 617.078 214.863 603.732 218.269 590.77C221.665 577.817 225.099 564.663 224.007 552.254C222.673 536.207 214.565 522.868 198.749 510.226C190.038 503.374 179.781 497.324 169.911 491.66C148.966 479.412 129.033 467.881 121.995 447.82C116.094 431.329 119.494 409.955 131.982 384.39C139.161 369.556 148.378 355.256 159.455 341.8C210.51 280.027 291.406 245.259 347.812 224.495C366.539 217.582 386.589 209.876 406.796 199.582C413.815 195.956 420.51 191.568 426.415 186.454C435.354 178.712 441.559 169.996 443.973 161.588C445.6 155.61 445.7 149.559 445.773 143.701C445.961 133.173 446.024 123.46 454.739 115.744L455.122 115.411C462.659 108.884 474.226 106.594 490.443 108.692C565.679 117.985 629.15 157.827 664.574 218.111C686.66 255.343 696.108 299.304 692.21 345.702C688.972 382.037 679.938 417.443 665.402 450.393C663.791 453.889 662.162 457.585 659.971 462.119C652.211 477.793 642.954 493.185 632.573 507.972C622.071 522.863 610.433 537.158 597.803 550.734C584.573 565.351 570.349 579.249 555.226 592.515L555.105 592.62C543.526 602.648 531.187 611.94 519.08 621.015L509.063 628.632L500.659 635.037C497.926 637.235 495.212 639.234 492.377 641.336C486.454 645.76 482.014 649.084 477.473 652.312C468.51 658.664 459.039 664.061 449.224 668.697C434.642 675.179 419.65 680.62 404.514 684.775C392.554 688.28 380.511 690.814 368.593 692.535C363.182 693.357 357.708 693.882 352.355 694.302C335.543 695.508 319.088 695.01 303.254 692.579C287.726 690.22 272.901 686.026 259.207 680.162C239.508 671.588 215.64 655.908 212.707 629.471ZM322.543 670.952C337.083 673.292 352.197 673.894 367.699 672.58C372.828 672.186 377.753 671.6 382.939 670.803C394.095 669.038 405.244 666.572 416.412 663.232C430.44 659.162 444.314 653.816 457.792 647.402C467.028 642.914 475.839 637.568 484.185 631.566C488.261 628.572 492.569 625.362 497.774 621.391C500.88 618.87 504.23 616.321 507.335 613.8L512.811 609.411L519.023 604.567C530.833 595.212 543.107 585.64 554.39 575.332C567.956 562.877 580.763 549.685 592.752 535.959C603.778 523.604 614.006 510.714 623.202 497.306C632.398 483.899 640.31 470.193 647.069 456.091C648.98 451.967 650.553 448.673 651.873 445.598C664.417 415.783 672.27 383.347 675.119 349.618C678.7 307.006 669.252 266.909 647.723 233.395C615.047 181.631 559.325 147.712 494.833 140.369C479.769 138.666 468.864 140.905 461.447 147.328C452.76 154.852 452.296 164.207 451.901 173.151C451.878 177.908 451.185 182.725 450.045 187.576C445.292 203.115 427.104 213.945 419.581 218.008C402.038 227.406 384.088 235.746 365.723 243.218C314.66 263.571 258.092 286.224 214.699 323.805C205.639 331.652 197.257 340.137 189.693 349.157C179.298 361.671 170.867 375.106 164.462 389.085C157.156 405.425 150.035 428.978 158.369 448.438C165.813 465.71 184.036 476.084 201.562 486.018C211.339 491.595 221.431 497.251 229.696 504.137C243.106 515.183 249.682 526.859 250.611 541.156C251.278 551.817 248.276 563.555 245.323 574.883C242.173 586.917 238.955 599.363 240.161 610.968C242.585 636.251 264.462 651.202 282.338 659.424C294.694 664.699 308.337 668.69 322.543 670.952ZM243.29 609.837C242.26 598.616 245.32 586.476 248.349 574.546C251.332 563.009 254.463 551.174 253.741 540.025C252.814 525.036 245.867 512.792 232.078 501.369C223.72 494.395 213.526 488.643 203.525 483.092C185.395 472.806 168.258 463.239 161.175 446.545C153.269 427.926 160.182 405.089 167.3 389.265C173.452 375.504 181.736 362.365 191.868 350.079C235.872 297.572 305.168 269.86 366.275 245.562C384.732 238.177 402.794 229.725 420.439 220.423C426.74 217.25 432.597 213.22 437.979 208.743C445.527 202.206 450.741 195.053 452.986 187.834C454.376 182.782 454.995 177.677 455.047 172.711C455.416 163.959 455.839 155.696 463.387 149.159C469.928 143.495 479.901 141.526 493.876 143.114C557.743 150.324 612.761 183.796 645.074 234.999C666.204 268.137 675.485 307.859 671.999 349.867C669.079 383.29 661.283 415.324 648.868 445.042C647.668 448.013 646.095 451.307 644.195 455.422C637.557 469.419 629.543 483.029 620.599 496.218C611.441 509.424 601.465 522.096 590.44 534.451C578.571 548.072 565.896 561.15 552.318 573.615C541.166 583.81 529.013 593.277 517.214 602.623L511.002 607.466L505.527 611.856C502.41 614.386 499.164 617.013 495.946 619.448C490.862 623.513 486.534 626.725 482.497 629.517C474.372 635.51 465.712 640.542 456.709 645.013C443.475 651.2 429.722 656.442 415.926 660.494C404.98 663.826 394.056 666.266 383.023 667.909C378.06 668.697 373.032 669.188 368.005 669.678C352.857 670.869 337.837 670.355 323.611 668.095C309.499 665.921 296.171 662.009 283.985 656.419C266.806 648.636 245.642 634.14 243.29 609.837ZM343.328 646.634C356.344 648.883 370.044 649.3 383.991 648.106C388.579 647.658 393.28 647.098 397.797 646.344C407.939 644.751 418.23 642.171 428.15 639.022C440.839 635.054 453.353 630.012 465.461 623.911C473.773 619.701 481.765 614.712 489.291 609.067C493.107 606.283 496.95 603.308 501.445 599.599C505.065 596.632 508.806 593.56 512.436 590.601L516.297 587.425C528.162 577.686 540.441 567.405 551.676 556.616C563.605 544.874 574.825 532.703 585.239 519.989C594.633 509.048 603.31 497.669 611.069 485.859C618.827 474.049 625.525 461.932 631.152 449.5C632.416 446.826 633.775 443.549 635.125 440.263C645.428 413.785 652.106 384.82 654.788 353.888C658 316.854 648.514 280.132 628.092 250.397C598.845 207.776 551.573 180.244 498.227 174.992C490.189 174.227 478.452 173.859 470.055 180.963L469.683 181.285C462.639 187.386 461.762 194.984 461.052 202.283C460.828 206.156 460.156 210.081 458.935 213.944C455.924 222.7 446.459 231.771 433.092 238.963L423.651 244.15C410.692 251.51 397.412 258.09 383.86 264.215C374.467 268.318 364.515 272.369 355.02 276.375C314.617 293.108 273.038 310.336 240.71 338.335C233.786 344.331 227.477 350.669 221.651 357.463C212.08 368.911 204.59 381.193 199.435 394.091C193.363 408.84 188.101 430.063 197.305 447.389C204.563 461.295 219.406 469.153 235.028 477.747C244.638 482.948 254.666 488.306 262.707 495.218C273.886 504.854 279.571 515.907 280.018 528.858C280.429 538.345 277.842 548.65 275.2 558.666C272.312 569.6 269.487 580.831 270.379 591.466C272.374 614.499 291.453 628.179 307.208 635.769C318.289 640.752 330.425 644.47 343.328 646.634ZM273.846 590.395C272.979 580.26 275.774 569.238 278.503 558.611C281.063 548.498 283.894 537.966 283.428 528.189C282.963 514.548 277.009 503.023 265.44 493.019C257.306 486.02 247.176 480.565 237.38 475.189C222.046 466.867 207.519 459.088 200.491 445.856C191.854 429.281 196.993 408.855 202.662 394.638C207.659 382.046 215.13 369.965 224.421 358.927C257.571 319.869 307.693 299.104 356.084 278.965C365.579 274.958 375.531 270.908 384.924 266.805C398.473 260.697 411.877 253.995 424.956 246.531L434.381 241.527C448.474 233.89 458.582 224.078 461.94 214.5C463.18 210.436 464.011 206.205 464.264 202.122C464.953 195.041 465.707 188.239 471.968 182.986C477.481 178.395 485.518 176.877 497.26 177.946C549.863 182.952 596.531 210.133 625.416 252.194C645.541 281.648 654.898 317.793 651.866 354.303C649.211 385.042 642.681 413.711 632.315 439.892C630.964 443.177 629.523 446.357 628.38 448.926C622.772 461.158 616.195 473.171 608.606 484.665C600.877 496.265 592.309 507.549 582.916 518.491C572.531 530.995 561.319 543.174 549.514 554.794C538.399 565.478 526.756 575.209 514.264 585.507L510.394 588.675C506.773 591.642 503.246 594.697 499.403 597.672C494.916 601.389 491.074 604.365 487.381 607.026C480.095 612.463 472.235 617.338 464.276 621.425C452.289 627.422 440 632.439 427.443 636.292C417.511 639.451 407.574 641.909 397.657 643.476C393.14 644.23 388.439 644.79 384.072 645.229C370.358 646.405 356.985 645.86 344.306 643.671C331.718 641.587 319.898 637.948 309.077 632.754C294.112 625.692 275.656 612.362 273.846 590.395ZM364.023 622.21C375.52 624.196 387.676 624.722 399.965 623.57C404.098 623.148 408.352 622.622 412.554 621.789C421.706 620.195 430.843 617.893 439.881 614.803C451.33 611.035 462.504 606.095 473.354 600.393C480.773 596.252 487.934 591.629 494.51 586.455C497.981 583.802 501.478 580.957 505.351 577.771C509.213 574.596 513.271 570.912 517.292 567.43C528.367 557.838 539.042 547.887 549.113 537.585C559.28 526.68 569.038 515.408 578.107 503.705C585.86 494.169 593.007 484.3 599.317 474.097C605.629 463.877 610.983 453.445 615.59 442.786C616.612 440.321 617.783 437.559 618.731 434.806C627.126 411.544 632.378 386.467 634.711 357.921C637.454 325.005 628.19 292.813 608.631 267.084C582.663 233.029 544.745 212.498 501.698 209.212C495.157 208.729 485.691 208.679 478.731 214.186C472.53 219.02 471.451 225.059 470.485 230.987C470.049 233.986 469.296 236.922 468.208 239.98C464.367 249.103 453.308 256.212 447.091 259.664C440.984 263.021 435.083 266.553 429.536 269.962C420.819 275.396 411.943 280.462 402.577 285.047C388.494 291.801 373.418 297.836 358.826 303.636C326.922 316.334 294.075 329.511 268.539 351.627C263.511 355.982 258.872 360.705 254.511 365.709C245.78 375.907 239.076 387.325 235.079 399.035C228.428 417.797 229.126 434.395 236.893 446.282C243.854 456.933 256.187 463.118 269.257 469.522C278.923 474.32 288.784 479.302 296.287 486.143C305.431 494.552 309.955 504.51 310.015 516.401C310.038 524.63 307.882 533.519 305.671 542.118C303.168 551.829 300.488 562.047 301.244 571.404C302.778 592.199 319.162 604.703 332.591 611.684C342.23 616.675 352.737 620.224 364.023 622.21ZM304.298 570.875C303.616 561.806 306.137 551.895 308.602 542.386C310.851 533.585 313.045 524.494 313.161 515.96C313.095 503.369 308.31 492.948 298.777 484.171C290.977 477.05 280.903 472.084 271.124 467.199C258.278 460.769 246.363 454.761 239.67 444.581C232.368 433.35 231.668 417.444 237.991 399.503C241.931 388.194 248.356 377.188 256.703 367.321C282.756 337.03 321.779 321.493 359.405 306.461C374.005 300.67 389.306 294.609 403.285 287.776C412.56 283.086 421.658 278.012 430.487 272.465C436.054 269.055 441.955 265.523 447.931 262.28C454.624 258.584 466.428 250.829 470.729 240.772C471.956 237.608 472.868 234.365 473.193 231.263C474.103 225.737 475.076 220.51 480.26 216.541C486.1 212.02 494.7 211.946 500.573 212.471C542.847 215.722 580.041 236.006 605.645 269.5C624.935 294.757 634.034 326.556 631.376 358.878C628.979 387.126 623.875 411.907 615.51 434.959C614.562 437.712 613.419 440.281 612.407 442.736C608.041 453.187 602.594 463.531 596.416 473.62C590.133 483.63 583.106 493.395 575.477 502.809C566.536 514.416 556.899 525.583 546.864 536.375C536.793 546.677 526.239 556.523 515.294 566.001C511.274 569.483 507.374 572.861 503.474 576.239C499.574 579.616 496.115 582.26 492.765 584.808C486.32 589.869 479.411 594.273 472.102 598.319C461.616 603.889 450.694 608.611 439.459 612.363C430.646 615.426 421.602 617.816 412.579 619.314C408.508 620.034 404.348 620.648 400.335 620.965C376.24 623.051 353.328 619.176 334.44 609.562C321.429 602.739 305.649 590.586 304.298 570.875ZM384.808 597.891C394.781 599.787 405.399 600.25 416.125 599.209C419.812 598.822 423.526 598.242 427.382 597.539C435.632 596.006 443.802 593.683 451.721 590.688C461.83 587.023 471.765 582.282 481.236 576.885C487.734 573.005 493.862 568.756 499.71 564.044C502.704 561.635 505.859 558.903 509.123 556.075C512.267 553.352 515.562 550.315 519.519 546.535C529.065 537.562 538.11 528.334 546.532 518.755C555.244 508.757 563.006 498.339 570.725 487.621C576.835 479.509 582.218 471.167 587.315 462.536C592.188 453.931 596.419 445.176 599.786 436.281C600.648 434.139 601.407 431.902 602.158 429.657C608.392 410.046 612.419 388.114 614.537 362.576C616.936 333.637 607.835 305.703 588.851 284.382C567.046 259.725 537.255 245.495 504.981 243.948C499.936 243.748 492.639 243.92 487.229 247.915C482.184 251.58 480.785 255.949 479.414 260.127C478.774 262.26 478.045 264.287 476.986 266.262C473.703 272.263 466.233 277.506 460.491 280.732C454.105 284.499 447.793 288.555 441.767 292.9C435.127 297.777 427.985 302.199 420.788 306.332C405.045 314.692 387.612 321.021 370.879 327.08C344.512 336.578 317.438 346.319 296.689 364.289C293.041 367.449 289.708 370.688 286.683 374.197C278.757 383.331 273.077 393.693 270.033 404.241C265.24 420.673 267.395 435.671 275.801 445.425C282.416 453.034 292.874 457.668 302.924 462.134C312.453 466.347 322.316 470.637 329.147 477.539C336.192 484.423 339.917 493.846 339.395 504.295C339.189 511.158 337.336 518.727 335.529 525.903C333.401 534.6 331.02 543.515 331.575 551.988C332.373 566.399 341.522 579.373 357.564 588.124C365.695 592.842 374.929 596.083 384.808 597.891ZM334.741 551.347C334.241 543.362 336.49 534.561 338.6 526.065C340.425 518.688 342.401 510.997 342.654 503.941C343.242 492.898 339.39 482.881 331.842 475.542C324.602 468.473 314.553 464.007 304.931 459.706C294.566 455.161 284.936 450.852 278.608 443.515C270.675 434.226 268.751 420.1 273.29 404.578C276.064 394.449 281.544 384.612 289.182 375.881C310.237 352.034 340.087 341.284 371.691 329.888C388.648 323.803 406.293 317.475 422.197 308.791C429.616 304.65 436.777 300.028 443.661 295.124C449.676 290.788 455.856 286.846 462.114 283.175C468.248 279.625 476.444 273.937 480.167 267.201C481.245 265.026 482.226 262.781 482.895 260.438C484.144 256.383 485.288 252.923 489.233 250.043C493.646 246.912 500.17 246.704 504.543 246.964C536.093 248.264 565.242 262.345 586.565 286.547C605.047 307.413 613.916 334.674 611.716 363.087C609.626 388.432 605.722 410.242 599.524 429.67C598.765 431.907 597.994 434.153 597.264 436.181C593.927 444.867 589.816 453.517 584.982 461.92C580.136 470.333 574.66 478.587 568.662 486.587C560.85 497.216 553.208 507.53 544.628 517.415C536.206 526.993 527.301 536.116 517.867 544.977C513.91 548.756 510.615 551.793 507.603 554.403C504.327 557.239 501.304 559.858 498.31 562.267C492.583 566.875 486.595 571.018 480.34 574.672C471.083 580.052 461.408 584.583 451.524 588.222C443.725 591.113 435.695 593.329 427.659 594.847C424.027 595.524 420.322 596.111 416.747 596.386C406.246 597.401 395.943 597.017 386.286 595.201C376.732 593.463 367.825 590.292 359.85 585.96C344.228 577.366 335.401 565.172 334.741 551.347ZM405.492 573.476C413.938 575.3 423.021 575.682 432.313 574.656C435.553 574.303 438.831 573.748 442.23 573.089C449.504 571.527 456.648 569.387 463.674 566.461C472.574 562.785 481.139 558.357 489.25 553.263C494.836 549.652 500.133 545.77 505.162 541.415C507.802 539.128 510.573 536.728 513.243 534.231C515.911 531.752 518.992 528.732 521.968 525.633C529.978 517.469 537.271 508.868 544.164 499.909C551.067 490.94 557.293 481.332 563.648 471.627C568.125 464.928 572.082 458.174 575.498 451.168C578.933 444.161 581.82 437.092 584.167 429.969C584.617 428.352 585.32 426.517 585.707 424.603C590.996 403.862 593.092 383.081 594.28 367.134C596.214 341.404 587.11 318.026 569.1 301.489C552.332 286.343 530.685 278.23 508.263 278.683C504.502 278.782 499.82 279.142 495.969 281.436C492.818 283.459 490.241 286.043 488.594 289.049C487.875 290.194 487.034 291.443 486.221 292.499C483.952 295.354 479.978 298.443 474.197 301.87C467.886 305.926 461.964 310.35 456.431 315.141C450.926 319.74 445.256 323.946 439.287 327.889C423.85 337.212 405.637 342.805 388.152 347.936C366.047 354.616 343.244 361.548 326.011 376.472C323.612 378.55 321.326 380.715 319.226 383.055C312.121 391.14 307.254 400.445 305.368 409.806C302.423 424.116 305.953 437.219 315.211 444.824C321.22 449.8 329.393 452.733 337.473 455.579C346.789 458.917 356.432 462.325 362.539 468.98C367.856 474.908 370.077 482.475 369.202 492.354C368.499 498.054 367.337 503.797 365.749 509.574C363.764 517.257 361.843 525.237 361.989 532.67C362.253 545.427 369.667 556.744 382.498 564.766C389.524 568.877 397.25 571.845 405.492 573.476ZM365.297 531.905C365.091 524.892 366.974 517.113 368.838 509.535C370.465 503.557 371.747 497.709 372.36 491.904C373.31 481.422 370.949 473.287 365.141 466.895C358.693 459.662 348.724 456.183 339.175 452.863C331.01 449.937 323.348 447.267 317.637 442.554C309.076 435.388 305.758 423.159 308.457 409.767C310.166 400.913 314.622 392.132 321.456 384.465C338.363 365.606 362.762 358.335 388.555 350.577C406.281 345.237 424.708 339.627 440.529 329.972C446.72 326.021 452.633 321.589 458.147 316.998C463.652 312.399 469.453 308.08 475.727 304.225C478.981 302.281 482.17 300.056 485.155 297.639C486.415 296.548 487.702 295.264 488.767 293.989C489.712 292.819 490.672 291.465 491.384 290.313C493.067 287.797 494.468 285.71 497.378 283.895C500.276 282.09 504.514 281.747 507.826 281.7C529.496 281.192 550.397 289.077 566.775 303.855C584.303 319.936 592.942 342.658 591.227 367.663C590.066 383.418 587.877 404.11 582.617 424.641C582.137 426.468 581.648 428.286 581.105 429.815C578.889 436.824 576.123 443.789 572.726 450.595C569.329 457.401 565.383 464.145 561.018 470.731C554.671 480.444 548.473 489.86 541.692 498.707C535.04 507.457 527.654 515.971 519.776 524.02C516.799 527.119 513.971 529.922 511.172 532.515C508.381 535.115 505.834 537.49 503.221 539.584C498.445 543.721 493.148 547.604 487.693 551.101C479.795 556.178 471.36 560.509 462.714 563.949C455.929 566.667 448.887 568.903 441.969 570.326C438.792 570.976 435.514 571.531 432.488 571.867C423.653 572.849 414.784 572.451 406.756 570.803C398.738 569.146 391.196 566.371 384.73 562.312C372.502 554.642 365.541 543.99 365.297 531.905ZM448.512 550.094C451.305 549.775 454.257 549.15 456.995 548.542C477.857 543.644 499.198 530.773 517.175 512.229C534.743 494.192 547.471 472.283 556.416 455.229C562.824 443.532 567.232 431.297 569.211 419.05C571.882 402.677 573.064 386.031 574.072 371.282C575.784 347.859 566.616 328.049 549.293 318.306C531.766 308.371 506.482 310.247 487.84 322.712C482.069 326.821 476.788 331.394 471.898 336.335C467.5 340.849 462.592 345.1 457.426 348.869C443.204 358.902 425.491 362.667 408.298 366.488C389.43 370.532 370.086 374.821 355.626 387.345C354.114 388.654 352.704 390.059 351.285 391.457C335.318 409.854 336.482 433.255 354.017 443.871C354.119 443.967 354.119 443.967 354.212 444.055C359.416 446.923 365.937 448.298 372.112 449.803C381.488 452.047 390.353 454.028 395.297 460.279C401.604 468.509 398.62 480.046 395.654 492.274C393.886 499.249 392.079 506.425 392.005 513.174C392.407 539.503 421.444 553.697 448.512 550.094ZM395.617 512.499C395.654 506.15 397.422 499.176 399.07 492.305C402.261 480.052 405.273 467.431 398.327 458.36C392.93 451.444 383.228 449.129 373.732 446.989C367.647 445.59 361.36 444.197 356.331 441.515C340.127 431.677 338.929 410.069 353.609 392.955C367.406 378.2 387.318 373.773 408.348 369.25C425.976 365.405 444.054 361.508 458.901 350.934C461.232 349.268 463.461 347.505 465.598 345.655C468.49 343.15 471.289 340.558 473.865 337.973C478.504 333.251 483.664 328.782 489.306 324.769C506.501 313.219 530.761 311.526 547.193 320.646C563.613 329.775 572.421 349.008 570.739 371.547C569.618 386.209 568.447 402.847 565.795 419.019C563.753 430.968 559.503 442.897 553.244 454.297C544.328 471.141 531.759 492.745 514.565 510.441C496.988 528.47 476.478 540.975 456.407 545.708C453.678 546.325 450.94 546.933 448.267 547.147C423.08 550.701 395.557 537.48 395.617 512.499Z" fill="#3870DB"/>
</svg>
