<svg width="80" height="80" viewBox="0 0 80 80" fill="none" xmlns="http://www.w3.org/2000/svg">
<g id="317714_video_youtube_icon (1) 1">
<g id="Group">
<path id="Vector" d="M79.175 22.9475C79.175 22.9475 78.395 17.065 75.9975 14.475C72.955 11.08 69.5475 11.06 67.985 10.8675C56.7925 10 40.005 10 40.005 10H39.9675C39.9675 10 23.18 10 11.99 10.8675C10.4275 11.06 7.0225 11.08 3.9775 14.475C1.5825 17.065 0.8 22.9475 0.8 22.9475C0.8 22.9475 0 29.85 0 36.7525V43.2225C0 50.13 0.8 57.03 0.8 57.03C0.8 57.03 1.58 62.91 3.9775 65.495C7.0225 68.89 11.015 68.7875 12.795 69.1425C19.1925 69.7975 39.9875 70 39.9875 70C39.9875 70 56.7925 69.97 67.985 69.1125C69.5475 68.9125 72.955 68.8925 75.9975 65.4975C78.3925 62.9125 79.175 57.0325 79.175 57.0325C79.175 57.0325 79.975 50.13 79.975 43.225V36.755C79.975 29.85 79.175 22.9475 79.175 22.9475Z" fill="#E02F2F"/>
<path id="Vector_2" d="M30 25V55L55 40L30 25Z" fill="white"/>
</g>
</g>
</svg>
