<svg width="114" height="114" viewBox="0 0 114 114" fill="none" xmlns="http://www.w3.org/2000/svg">
<g id="ic:outline-electric-meter">
<path id="Vector" d="M99.1875 52.3125C99.1875 41.1237 94.7428 30.3931 86.8311 22.4814C78.9194 14.5697 68.1888 10.125 57 10.125C45.8112 10.125 35.0806 14.5697 27.1689 22.4814C19.2572 30.3931 14.8125 41.1237 14.8125 52.3125C14.8125 70.6875 26.5781 86.25 42.9375 92.0625V103.875H52.3125V94.2188C55.426 94.5984 58.574 94.5984 61.6875 94.2188V103.875H71.0625V92.0625C87.4219 86.25 99.1875 70.6875 99.1875 52.3125ZM57 85.125C38.9062 85.125 24.1875 70.4062 24.1875 52.3125C24.1875 34.2188 38.9062 19.5 57 19.5C75.0938 19.5 89.8125 34.2188 89.8125 52.3125C89.8125 70.4062 75.0938 85.125 57 85.125Z" fill="url(#paint0_linear_214_445)"/>
<path id="Vector_2" d="M38.25 33.5625H75.75V42.9375H38.25V33.5625ZM60.5156 47.625L46.4531 61.6875L52.3125 67.5469L46.4531 73.4062L53.4844 80.4375L67.5469 66.375L61.6875 60.5156L67.5469 54.6562L60.5156 47.625Z" fill="url(#paint1_linear_214_445)"/>
</g>
<defs>
<linearGradient id="paint0_linear_214_445" x1="57" y1="10.125" x2="57" y2="103.875" gradientUnits="userSpaceOnUse">
<stop stop-color="#FE0000"/>
<stop offset="1" stop-color="#002992"/>
</linearGradient>
<linearGradient id="paint1_linear_214_445" x1="57" y1="33.5625" x2="57" y2="80.4375" gradientUnits="userSpaceOnUse">
<stop stop-color="#FE0000"/>
<stop offset="1" stop-color="#002992"/>
</linearGradient>
</defs>
</svg>
