<svg width="113" height="113" viewBox="0 0 113 113" fill="none" xmlns="http://www.w3.org/2000/svg">
<g id="2639916_services_icon 1" clip-path="url(#clip0_264_435)">
<path id="Vector" d="M75.75 41C77.8211 41 79.5 39.3211 79.5 37.25C79.5 35.1789 77.8211 33.5 75.75 33.5C73.6789 33.5 72 35.1789 72 37.25C72 39.3211 73.6789 41 75.75 41Z" fill="url(#paint0_linear_264_435)"/>
<g id="Group">
<path id="Vector_2" d="M49.5 71C49.5 75.1437 46.1437 78.5 42 78.5C37.8563 78.5 34.5 75.1437 34.5 71C34.5 66.8563 37.8563 63.5 42 63.5C46.1437 63.5 49.5 66.8563 49.5 71ZM83.25 69.7438V72.2562C83.25 73.16 82.6087 73.9325 81.72 74.0975L78.015 74.7912C76.4737 75.08 75.3375 76.3137 75.0262 77.8512C74.7675 79.13 74.4375 80.3863 74.0362 81.6088C73.5487 83.0938 73.9163 84.7175 75.1012 85.7338L77.9475 88.175C78.6338 88.7637 78.8025 89.7537 78.3488 90.5375L77.0925 92.7125C76.6425 93.4925 75.6975 93.845 74.8463 93.545L71.2725 92.2887C69.7988 91.7713 68.205 92.2663 67.1625 93.4325C66.3037 94.3962 65.3887 95.3075 64.425 96.17C63.2587 97.2125 62.7637 98.8025 63.2812 100.28L64.5375 103.854C64.8375 104.705 64.4888 105.65 63.705 106.1L61.53 107.356C60.75 107.806 59.7562 107.637 59.1675 106.955L56.7262 104.109C55.71 102.924 54.0863 102.556 52.6012 103.044C51.3787 103.445 50.1263 103.775 48.8438 104.034C47.3062 104.345 46.0725 105.481 45.7837 107.023L45.09 110.728C44.9325 111.609 44.16 112.25 43.2562 112.25H40.7438C39.84 112.25 39.0675 111.609 38.9025 110.72L38.2088 107.015C37.92 105.474 36.6863 104.337 35.1488 104.026C33.87 103.767 32.6137 103.438 31.3912 103.036C29.9062 102.549 28.2825 102.916 27.2663 104.101L24.825 106.948C24.2362 107.634 23.2463 107.803 22.4625 107.349L20.2875 106.092C19.5075 105.643 19.155 104.698 19.455 103.846L20.7113 100.272C21.2288 98.795 20.7338 97.205 19.5675 96.1625C18.6038 95.3037 17.6925 94.3887 16.83 93.425C15.7875 92.2587 14.1975 91.7637 12.72 92.2812L9.15 93.545C8.29875 93.845 7.35375 93.4963 6.90375 92.7125L5.6475 90.5375C5.1975 89.7575 5.36625 88.7637 6.04875 88.175L8.895 85.7338C10.08 84.7175 10.4475 83.0938 9.96 81.6088C9.55875 80.3863 9.22875 79.1337 8.97 77.8512C8.65875 76.3137 7.5225 75.08 5.98125 74.7912L2.27625 74.0975C1.39125 73.9325 0.75 73.16 0.75 72.2562V69.7438C0.75 68.84 1.39125 68.0675 2.28 67.9025L5.985 67.2088C7.52625 66.92 8.6625 65.6863 8.97375 64.1488C9.2325 62.87 9.5625 61.6137 9.96375 60.3912C10.4513 58.9062 10.0838 57.2825 8.89875 56.2663L6.0525 53.825C5.36625 53.2362 5.1975 52.2463 5.65125 51.4625L6.9075 49.2875C7.3575 48.5075 8.3025 48.155 9.15375 48.455L12.7275 49.7113C14.205 50.2288 15.795 49.7337 16.8375 48.5675C17.6962 47.6037 18.6112 46.6925 19.575 45.83C20.7412 44.7875 21.2362 43.1975 20.7188 41.72L19.455 38.15C19.155 37.2987 19.5037 36.3537 20.2875 35.9037L22.4625 34.6475C23.2425 34.1975 24.2362 34.3663 24.825 35.0488L27.2663 37.895C28.2825 39.08 29.9062 39.4475 31.3912 38.96C32.6137 38.5588 33.87 38.2288 35.1488 37.97C36.6863 37.6588 37.92 36.5225 38.2088 34.9813L38.9025 31.2762C39.0675 30.3912 39.84 29.75 40.7438 29.75H43.2562C44.16 29.75 44.9325 30.3912 45.0975 31.28L45.7912 34.985C46.08 36.5262 47.3137 37.6625 48.8512 37.9737C50.13 38.2325 51.3863 38.5625 52.6088 38.9637C54.0938 39.4512 55.7175 39.0838 56.7337 37.8988L59.175 35.0525C59.7637 34.3662 60.7537 34.1975 61.5375 34.6513L63.7125 35.9075C64.4925 36.3575 64.845 37.3025 64.545 38.1538L63.2887 41.7237C62.7713 43.2012 63.2663 44.7912 64.4325 45.8337C65.3962 46.6925 66.3075 47.6075 67.17 48.5713C68.2125 49.7375 69.8025 50.2325 71.28 49.715L74.8538 48.4588C75.705 48.1588 76.65 48.5075 77.1 49.2913L78.3562 51.4663C78.8063 52.2463 78.6375 53.24 77.955 53.8287L75.1087 56.27C73.9238 57.2862 73.5563 58.91 74.0437 60.395C74.445 61.6175 74.775 62.8737 75.0338 64.1525C75.345 65.69 76.4813 66.9237 78.0225 67.2125L81.7275 67.9062C82.6087 68.0675 83.25 68.84 83.25 69.7438ZM64.5 71C64.5 58.5725 54.4275 48.5 42 48.5C29.5725 48.5 19.5 58.5725 19.5 71C19.5 83.4275 29.5725 93.5 42 93.5C54.4275 93.5 64.5 83.4275 64.5 71Z" fill="url(#paint1_linear_264_435)"/>
</g>
<path id="Vector_3" d="M111.72 34.1525L107.31 33.3237C106.166 33.11 105.311 32.2025 105.075 31.0587C104.854 29.9937 104.576 28.9475 104.246 27.9275C103.886 26.8212 104.171 25.6175 105.052 24.86L108.45 21.95C109.136 21.3612 109.305 20.3712 108.851 19.5875L107.595 17.4125C107.145 16.6325 106.2 16.28 105.349 16.58L101.119 18.0688C100.024 18.455 98.8349 18.0987 98.0587 17.2325C97.3349 16.4263 96.5699 15.6613 95.7637 14.9375C94.8974 14.1613 94.5412 12.9725 94.9274 11.8775L96.4162 7.6475C96.7162 6.79625 96.3674 5.85125 95.5837 5.40125L93.4087 4.145C92.6287 3.695 91.6349 3.86375 91.0462 4.54625L88.1324 7.94375C87.3749 8.825 86.1712 9.11 85.0649 8.75C84.0449 8.42 82.9987 8.1425 81.9337 7.92125C80.7937 7.685 79.8862 6.83 79.6687 5.68625L78.8399 1.27625C78.6824 0.39125 77.9099 -0.25 77.0062 -0.25H74.4937C73.5899 -0.25 72.8174 0.39125 72.6524 1.28L71.8237 5.69C71.6099 6.83375 70.7024 7.68875 69.5587 7.925C68.4937 8.14625 67.4474 8.42375 66.4274 8.75375C65.3212 9.11375 64.1174 8.82875 63.3599 7.9475L60.4499 4.55C59.8612 3.86375 58.8712 3.695 58.0874 4.14875L55.9124 5.405C55.1324 5.855 54.7799 6.8 55.0799 7.65125L56.5687 11.8812C56.9549 12.9762 56.5987 14.165 55.7324 14.9412C54.9262 15.665 54.1612 16.43 53.4374 17.2362C52.6612 18.1025 51.4724 18.4587 50.3774 18.0725L46.1474 16.5837C45.2962 16.2837 44.3512 16.6325 43.9012 17.4162L42.6449 19.5912C42.1949 20.3712 42.3637 21.365 43.0462 21.9537L43.4137 22.2687C47.8499 22.3437 51.6449 25.52 52.4662 29.8962L52.6912 31.0887L53.4749 30.17C55.1962 28.1675 57.6112 27.0725 60.1012 26.9412C63.4612 21.86 69.2062 18.5 75.7499 18.5C86.1037 18.5 94.4999 26.8962 94.4999 37.25C94.4999 43.7937 91.1399 49.5387 86.0587 52.8912C85.9274 55.3812 84.8362 57.7962 82.8337 59.5137L81.9112 60.3012L83.1037 60.5262C87.4799 61.3475 90.6562 65.1425 90.7312 69.5787L91.0462 69.9462C91.6349 70.6325 92.6249 70.8012 93.4087 70.3475L95.5837 69.0912C96.3637 68.6412 96.7162 67.6962 96.4162 66.845L94.9274 62.615C94.5412 61.52 94.8974 60.3312 95.7637 59.555C96.5699 58.8312 97.3349 58.0662 98.0587 57.26C98.8349 56.3937 100.024 56.0375 101.119 56.4237L105.349 57.9125C106.2 58.2125 107.145 57.8637 107.595 57.08L108.851 54.905C109.301 54.125 109.132 53.1312 108.45 52.5425L105.052 49.6287C104.171 48.8712 103.886 47.6675 104.246 46.5612C104.576 45.5412 104.854 44.495 105.075 43.43C105.311 42.29 106.166 41.3825 107.31 41.165L111.72 40.3362C112.609 40.1825 113.25 39.41 113.25 38.5062V35.9937C113.25 35.09 112.609 34.3175 111.72 34.1525Z" fill="url(#paint2_linear_264_435)"/>
</g>
<defs>
<linearGradient id="paint0_linear_264_435" x1="75.75" y1="33.5" x2="75.75" y2="41" gradientUnits="userSpaceOnUse">
<stop stop-color="#FE0000"/>
<stop offset="1" stop-color="#002992"/>
</linearGradient>
<linearGradient id="paint1_linear_264_435" x1="42" y1="29.75" x2="42" y2="112.25" gradientUnits="userSpaceOnUse">
<stop stop-color="#FE0000"/>
<stop offset="1" stop-color="#002992"/>
</linearGradient>
<linearGradient id="paint2_linear_264_435" x1="77.822" y1="-0.25" x2="77.822" y2="70.6009" gradientUnits="userSpaceOnUse">
<stop stop-color="#FE0000"/>
<stop offset="1" stop-color="#002992"/>
</linearGradient>
<clipPath id="clip0_264_435">
<rect width="112.5" height="112.5" fill="white" transform="translate(0.75 -0.25)"/>
</clipPath>
</defs>
</svg>
