<svg width="114" height="114" viewBox="0 0 114 114" fill="none" xmlns="http://www.w3.org/2000/svg">
<g id="11041167_battery_electric_electronics_plug_technology_icon 1" clip-path="url(#clip0_264_460)">
<g id="_x30_4_x2C__Battery_x2C__Electric_x2C__Electronics_x2C__Plug_x2C__Technology_x2C__Symbol_x2C__Energy_Storage_x2C__Tool">
<g id="Group">
<path id="Vector" d="M51.5068 84.4658H14.1533C12.94 84.4658 11.9561 85.4495 11.9561 86.6631V99.8467C11.9561 101.06 12.94 102.044 14.1533 102.044H51.5068C52.7204 102.044 53.7041 101.06 53.7041 99.8467V86.6631C53.7041 85.4495 52.7204 84.4658 51.5068 84.4658Z" fill="url(#paint0_linear_264_460)"/>
<path id="Vector_2" d="M110.833 14.1533H106.438V7.56152C106.438 6.34797 105.455 5.36426 104.241 5.36426C103.028 5.36426 102.044 6.34797 102.044 7.56152V14.1533H93.2549V7.56152C93.2549 6.34797 92.2709 5.36426 91.0576 5.36426C89.8443 5.36426 88.8604 6.34797 88.8604 7.56152V14.1533H84.4658C83.2525 14.1533 82.2686 15.137 82.2686 16.3506V22.9424C82.2686 29.0655 85.8661 34.3631 91.0576 36.8361V62.4932C91.0576 64.9163 89.0862 66.8877 86.6631 66.8877H64.6904V22.9424C64.6904 18.0961 60.7477 14.1533 55.9014 14.1533H51.5068V3.16699C51.5068 1.95344 50.5231 0.969727 49.3096 0.969727H16.3506C15.1373 0.969727 14.1533 1.95344 14.1533 3.16699V14.1533H9.75879C4.9125 14.1533 0.969727 18.0961 0.969727 22.9424V104.241C0.969727 109.087 4.9125 113.03 9.75879 113.03H55.9014C60.7477 113.03 64.6904 109.087 64.6904 104.241V80.0713H88.8604C97.3416 80.0713 104.241 73.1714 104.241 64.6904V36.8361C109.433 34.3631 113.03 29.0655 113.03 22.9424V16.3506C113.03 15.137 112.046 14.1533 110.833 14.1533ZM60.2959 104.241C60.2959 106.664 58.3245 108.636 55.9014 108.636H9.75879C7.33564 108.636 5.36426 106.664 5.36426 104.241V22.9424C5.36426 20.5192 7.33564 18.5479 9.75879 18.5479H16.3506C17.5639 18.5479 18.5479 17.5641 18.5479 16.3506V5.36426H47.1123V16.3506C47.1123 17.5641 48.096 18.5479 49.3096 18.5479H55.9014C58.3245 18.5479 60.2959 20.5192 60.2959 22.9424V104.241ZM99.8467 64.6904C99.8467 70.7483 94.9182 75.6768 88.8604 75.6768H64.6904V71.2822H86.6631C91.5094 71.2822 95.4521 67.3395 95.4521 62.4932V38.1637C96.93 38.376 98.3666 38.3764 99.8467 38.1637V64.6904ZM108.636 22.9424C108.636 29.0002 103.707 33.9287 97.6494 33.9287C91.5916 33.9287 86.6631 29.0002 86.6631 22.9424V18.5479H108.636V22.9424Z" fill="url(#paint1_linear_264_460)"/>
<path id="Vector_3" d="M18.5478 61.3945H26.7199L23.0078 76.2426C22.7591 77.2366 23.2311 78.2706 24.1447 78.7347C25.0572 79.1977 26.1702 78.9709 26.8276 78.1821L48.8002 51.8149C49.9918 50.3849 48.9701 48.2109 47.1123 48.2109H36.2952L40.3634 38.0407C40.9404 36.598 39.8752 35.0273 38.3232 35.0273H27.3369C26.4384 35.0273 25.6303 35.5742 25.2967 36.4085L16.5077 58.3812C15.9313 59.822 16.9937 61.3945 18.5478 61.3945Z" fill="url(#paint2_linear_264_460)"/>
</g>
</g>
</g>
<defs>
<linearGradient id="paint0_linear_264_460" x1="32.8301" y1="84.4658" x2="32.8301" y2="102.044" gradientUnits="userSpaceOnUse">
<stop stop-color="#FE0000"/>
<stop offset="1" stop-color="#002992"/>
</linearGradient>
<linearGradient id="paint1_linear_264_460" x1="57" y1="0.969727" x2="57" y2="113.03" gradientUnits="userSpaceOnUse">
<stop stop-color="#FE0000"/>
<stop offset="1" stop-color="#002992"/>
</linearGradient>
<linearGradient id="paint2_linear_264_460" x1="32.8305" y1="35.0273" x2="32.8305" y2="78.9728" gradientUnits="userSpaceOnUse">
<stop stop-color="#FE0000"/>
<stop offset="1" stop-color="#002992"/>
</linearGradient>
<clipPath id="clip0_264_460">
<rect width="112.5" height="112.5" fill="white" transform="translate(0.75 0.75)"/>
</clipPath>
</defs>
</svg>
