<svg width="114" height="114" viewBox="0 0 114 114" fill="none" xmlns="http://www.w3.org/2000/svg">
<g id="4753002_audio_cable_headphone_jack_lead_icon 1">
<g id="Layer 2">
<path id="Vector" d="M79.7813 38.25C78.7447 34.2353 76.4066 30.6774 73.1327 28.1329C69.8588 25.5885 65.8339 24.201 61.6875 24.1875H28.875V38.25H10.125V47.625H28.875V61.6875H61.6875C65.8258 61.6637 69.84 60.2715 73.1044 57.7278C76.3687 55.1842 78.6999 51.632 79.7344 47.625C84.0856 47.8426 88.1722 49.7797 91.0951 53.0103C94.018 56.2409 95.5379 60.5004 95.3203 64.8516C95.1028 69.2028 93.1656 73.2893 89.935 76.2123C86.7044 79.1352 82.445 80.6551 78.0938 80.4375H10.125V89.8125H78.0938C81.4794 89.9233 84.8537 89.3662 88.024 88.1729C91.1944 86.9796 94.0986 85.1736 96.571 82.858C99.0434 80.5423 101.035 77.7624 102.433 74.6768C103.831 71.5913 104.608 68.2606 104.719 64.875C104.83 61.4894 104.272 58.115 103.079 54.9447C101.886 51.7744 100.08 48.8701 97.7642 46.3978C95.4486 43.9254 92.6686 41.9334 89.5831 40.5354C86.4976 39.1374 83.1669 38.3608 79.7813 38.25Z" fill="url(#paint0_linear_264_444)"/>
</g>
</g>
<defs>
<linearGradient id="paint0_linear_264_444" x1="57.4288" y1="24.1875" x2="57.4288" y2="89.8263" gradientUnits="userSpaceOnUse">
<stop stop-color="#FE0000"/>
<stop offset="1" stop-color="#002992"/>
</linearGradient>
</defs>
</svg>
