<svg width="113" height="119" viewBox="0 0 113 119" fill="none" xmlns="http://www.w3.org/2000/svg">
<g id="928428_configuration_fix_repair_setting_setup_icon 1">
<path id="Vector" d="M35.5079 68.9027C33.5015 68.198 31.3575 67.8111 29.1245 67.8111C18.0008 67.8111 8.97974 77.3045 8.97974 89.0214C8.97974 91.434 9.36742 93.7502 10.0724 95.9114L23.7221 81.5391L36.6029 95.1018L23.1353 109.283C25.0276 109.904 27.0388 110.234 29.1253 110.237C40.2523 110.237 49.2709 100.738 49.2709 89.024C49.2709 86.1367 48.723 83.3867 47.7291 80.877L77.4914 49.5519C79.497 50.2567 81.6418 50.6436 83.874 50.6436C94.9977 50.6436 104.02 41.1484 104.02 29.4324C104.02 27.0198 103.632 24.7044 102.927 22.5432L89.2772 36.9155L76.3956 23.3519L89.864 9.17138C87.9717 8.55183 85.9605 8.21863 83.874 8.21777C72.747 8.21777 63.7284 17.7147 63.7284 29.4298C63.7284 32.3171 64.2763 35.0671 65.2702 37.576L35.5079 68.9027Z" fill="url(#paint0_linear_264_441)"/>
</g>
<defs>
<linearGradient id="paint0_linear_264_441" x1="56.4997" y1="8.21777" x2="56.4997" y2="110.237" gradientUnits="userSpaceOnUse">
<stop stop-color="#FE0000"/>
<stop offset="1" stop-color="#002992"/>
</linearGradient>
</defs>
</svg>
